<?xml version="1.0" encoding="iso-8859-1"?>
<!-- Generator: Adobe Illustrator 19.0.0, SVG Export Plug-In . SVG Version: 6.00 Build 0)  -->
<svg version="1.1" id="Layer_1" xmlns="http://www.w3.org/2000/svg" xmlns:xlink="http://www.w3.org/1999/xlink" x="0px" y="0px"
	 viewBox="0 0 512.001 512.001" style="enable-background:new 0 0 512.001 512.001;" xml:space="preserve">
<g>
	<g>
		<path d="M499.505,128.508l-72.045-72.045c-3.163-3.162-8.293-3.162-11.455,0c-3.163,3.164-3.163,8.293,0,11.456l72.045,72.044
			c10.2,10.201,10.2,27.222,0,37.422c-10.201,10.2-27.221,10.2-37.421-0.001L334.614,61.371c-10.2-10.199-10.2-27.22,0-37.419
			c10.2-10.201,27.221-10.201,37.421,0l23.986,23.984c3.163,3.162,8.293,3.163,11.455-0.001c3.163-3.163,3.163-8.293,0-11.455
			l-23.984-23.984C375.434,4.438,364.721,0,353.324,0c-11.396,0-22.108,4.438-30.167,12.495
			c-8.057,8.058-12.495,18.771-12.495,30.167c0,8.646,2.56,16.895,7.312,23.894L204.956,179.574
			c-3.392-1.254-6.81-2.441-10.263-3.52c-31.896-9.958-66.224-12.369-99.277-6.976c-6.383,1.041-9.004,9.14-4.423,13.723
			l95.046,95.046l-25.347,25.347c-3.163,3.165-3.163,8.293,0,11.456c3.163,3.162,8.293,3.162,11.455,0l25.347-25.347l25.203,25.202
			L58.708,478.495l-37.804,12.602l12.601-37.804l120.011-120.011c3.163-3.164,3.163-8.293,0-11.456
			c-3.163-3.162-8.293-3.162-11.455,0L20.697,443.19c-0.889,0.889-1.56,1.973-1.957,3.167L0.411,501.343
			c-2.069,6.207,4.033,12.317,10.246,10.246l54.987-18.329c1.192-0.397,2.277-1.067,3.167-1.957l165.341-165.341l95.047,95.046
			c4.583,4.583,12.681,1.954,13.723-4.424c5.394-33.054,2.981-67.384-6.976-99.277c-1.078-3.453-2.266-6.87-3.52-10.264
			l113.019-113.019c6.999,4.752,15.248,7.312,23.894,7.312c11.396,0,22.108-4.438,30.167-12.495
			c8.057-8.058,12.495-18.771,12.495-30.167S507.562,136.566,499.505,128.508z M328.895,397.793L114.206,183.106
			c57.916-4.625,115.622,16.339,156.985,57.703C312.557,282.174,333.52,339.867,328.895,397.793z M325.682,290.878
			c-10.603-22.743-25.188-43.678-43.034-61.525c-17.847-17.847-38.781-32.431-61.525-43.033L328.887,78.556l104.559,104.558
			L325.682,290.878z"/>
	</g>
</g>
<g>
</g>
<g>
</g>
<g>
</g>
<g>
</g>
<g>
</g>
<g>
</g>
<g>
</g>
<g>
</g>
<g>
</g>
<g>
</g>
<g>
</g>
<g>
</g>
<g>
</g>
<g>
</g>
<g>
</g>
</svg>
